<?xml version="1.0" encoding="utf-8"?>
<!-- Generator: Adobe Illustrator 19.1.0, SVG Export Plug-In . SVG Version: 6.00 Build 0)  -->
<svg version="1.1" id="Layer_1" xmlns="http://www.w3.org/2000/svg" xmlns:xlink="http://www.w3.org/1999/xlink" x="0px" y="0px"
	 viewBox="54 37 483.1 518.2" style="enable-background:new 54 37 483.1 518.2;" xml:space="preserve">
<style type="text/css">
	.st0{fill:none;stroke:#FFFFFF;stroke-width:2;stroke-linecap:round;stroke-miterlimit:10;}
	.st1{fill:none;}
</style>
<polygon class="st0" points="378.3,332.1 378.3,230.7 278.7,207.6 280.5,307.1 "/>
<polygon class="st0" points="270.5,304.7 268.9,204.5 173.8,184.8 180.1,281.4 "/>
<polygon class="st0" points="172.1,281.4 165.9,183.3 78.3,163.1 86.3,258.2 "/>
<polyline class="st0" points="78.3,163.1 139.7,126.7 224.4,146.1 165.9,183.3 "/>
<polyline class="st0" points="144.8,126.7 143.7,122.8 197.7,92.1 278.4,109.7 228.2,142.8 143.7,122.8 "/>
<polygon class="st0" points="284.4,105.5 328.9,76 248.2,60.9 202.7,88.2 "/>
<polygon class="st0" points="291.4,108 338.2,76.2 421,93 377.7,125 "/>
<polygon class="st0" points="373.5,128.2 286.4,111.7 235.2,144.2 327.2,164.2 "/>
<polygon class="st0" points="322.2,167.7 229.4,148.5 173.8,184.8 268.9,204.5 "/>
<polyline class="st0" points="278.8,207.6 332.3,169 428.3,190.8 378.5,230.7 "/>
<polyline class="st0" points="378.5,332.1 426,286.8 428.3,190.8 "/>
<polygon class="st0" points="337.2,165.5 385,129.2 474.7,148.3 471.1,241.6 430,283 433.5,185.8 "/>
<line class="st0" x1="433.5" y1="185.8" x2="474.7" y2="148.3"/>
<polygon class="st0" points="389,125.3 428.5,94.2 517.3,112 512.5,200.3 475.3,237.3 479.5,144.5 "/>
<line class="st0" x1="479.5" y1="144.5" x2="517.3" y2="112"/>
<polyline class="st0" points="476.5,237 513.4,277.7 509.1,366.3 415.1,383.5 417,294.7 "/>
<line class="st1" x1="418.4" y1="292.8" x2="513.4" y2="277.7"/>
<polyline class="st0" points="409.2,303.3 408.6,384.4 308.7,403.5 309.3,314.4 "/>
<polyline class="st0" points="172.1,282.9 198,332.9 302.2,313.5 302.8,404.4 201.9,424.8 175.4,371.4 170.5,281.8 "/>
<line class="st0" x1="201.9" y1="424.8" x2="198" y2="332.9"/>
<polyline class="st0" points="174.2,370.9 148.3,315.9 148,274.9 "/>
<polyline class="st0" points="148,313.8 126.7,274.7 126.7,269.6 "/>
<polyline class="st0" points="141.2,304 93.4,322.4 100.2,399.8 153.8,438.1 148.9,357 164.1,353 "/>
<line class="st0" x1="148.9" y1="357" x2="93.4" y2="322.4"/>
<polyline class="st0" points="166.8,356.3 153.6,360.6 159.1,440.5 216.8,482.8 214.6,423 "/>
<line class="st0" x1="153.6" y1="360.6" x2="176" y2="373.6"/>
<polyline class="st0" points="220.7,421.1 222.9,488.4 285.5,532.2 362.9,492.3 363.9,409.7 344.1,397 "/>
<polyline class="st0" points="236.5,417.7 284.6,450.1 363.9,409.7 "/>
<line class="st0" x1="284.6" y1="450.1" x2="285.5" y2="532.2"/>
<polyline class="st0" points="441.6,379.2 439.7,452.3 369.8,489.9 371,406.4 415.1,383.5 "/>
<line class="st0" x1="371" y1="406.4" x2="350.3" y2="395.5"/>
<line class="st0" x1="369.4" y1="488.7" x2="362.7" y2="485.6"/>
<polyline class="st0" points="439.4,447 446.5,448.8 512.5,414.7 517.5,335.4 510.7,332.3 "/>
<line class="st0" x1="517.5" y1="335.4" x2="510.4" y2="339.1"/>
<line class="st0" x1="446.5" y1="448.8" x2="448.7" y2="377.3"/>
<line class="st0" x1="270.5" y1="304.7" x2="280.4" y2="299.9"/>
<line class="st0" x1="323" y1="168.2" x2="323" y2="174.7"/>
<line class="st0" x1="327.6" y1="163.6" x2="327.6" y2="171.9"/>
<line class="st0" x1="172.1" y1="281.4" x2="179.5" y2="276.2"/>
<line class="st0" x1="373.7" y1="129.5" x2="373.7" y2="137.8"/>
<line class="st0" x1="420.7" y1="93.6" x2="420.7" y2="100"/>
<line class="st0" x1="388.5" y1="125.8" x2="388.5" y2="129.5"/>
<line class="st0" x1="378.3" y1="124" x2="378.3" y2="134.1"/>
<line class="st0" x1="329.5" y1="77" x2="329.5" y2="81.6"/>
<line class="st0" x1="285.3" y1="106.5" x2="285.3" y2="111.1"/>
<line class="st0" x1="291.7" y1="108.3" x2="291.7" y2="112.9"/>
<line class="st0" x1="278.8" y1="110.1" x2="278.8" y2="114.8"/>
<line class="st0" x1="202.3" y1="88" x2="202.3" y2="93.6"/>
<line class="st0" x1="234.6" y1="144.7" x2="234.6" y2="148.9"/>
<line class="st0" x1="216.8" y1="482.8" x2="222.9" y2="481.7"/>
<line class="st0" x1="153.8" y1="438.1" x2="158.9" y2="436.8"/>
<line class="st0" x1="228.1" y1="143.3" x2="228.1" y2="148.9"/>
<line class="st0" x1="224.4" y1="146.1" x2="224.4" y2="151.6"/>
<line class="st0" x1="415.1" y1="383.5" x2="408.8" y2="378.8"/>
<line class="st0" x1="308.6" y1="404" x2="302.7" y2="397.8"/>
</svg>
